<svg width="512" height="512" viewBox="0 0 512 512" fill="none" xmlns="http://www.w3.org/2000/svg">
<rect width="512" height="512" rx="256" fill="#E6E4E3"/>
<path d="M212.433 101.906C219.988 92.3288 233.525 89.9419 243.9 96.3579L310.726 137.684C312.089 138.527 313.533 139.232 315.036 139.787L388.744 167.003C400.187 171.228 406.64 183.365 403.744 195.215L385.091 271.541C384.71 273.097 384.487 274.688 384.423 276.289L381.316 354.8C380.834 366.989 371.285 376.877 359.12 377.784L280.766 383.629C279.168 383.749 277.586 384.028 276.043 384.462L200.415 405.768C188.674 409.076 176.319 403.05 171.697 391.761L141.925 319.048C141.318 317.565 140.564 316.147 139.674 314.814L96.04 249.471C89.2659 239.327 91.179 225.715 100.487 217.83L160.441 167.046C161.664 166.01 162.78 164.854 163.772 163.596L212.433 101.906Z" stroke="#1B1816" stroke-width="35" stroke-linejoin="bevel"/>
<path d="M251.61 335.22C239.037 335.22 227.997 332.077 218.49 325.79C208.983 319.503 201.547 310.533 196.18 298.88C190.967 287.073 188.36 273.197 188.36 257.25C188.36 245.597 189.817 234.863 192.73 225.05C195.643 215.237 200.013 206.803 205.84 199.75C211.82 192.543 219.257 186.947 228.15 182.96C237.043 178.973 247.393 176.98 259.2 176.98C268.553 176.98 276.833 178.283 284.04 180.89C291.4 183.497 297.533 187.177 302.44 191.93C307.5 196.683 311.18 202.357 313.48 208.95C315.933 215.543 317.083 222.98 316.93 231.26L289.33 234.94C289.33 227.427 288.027 221.293 285.42 216.54C282.967 211.633 279.363 207.953 274.61 205.5C270.01 203.047 264.49 201.82 258.05 201.82C250.69 201.82 244.02 203.813 238.04 207.8C232.06 211.787 227.383 217.767 224.01 225.74C220.637 233.713 218.95 243.833 218.95 256.1C218.95 265.3 219.947 273.35 221.94 280.25C223.933 287.15 226.77 292.9 230.45 297.5C234.283 301.947 238.73 305.32 243.79 307.62C249.003 309.767 254.753 310.84 261.04 310.84C268.093 310.84 273.997 309.537 278.75 306.93C283.657 304.17 287.413 300.337 290.02 295.43C292.78 290.523 294.313 284.62 294.62 277.72H267.94V256.1H321.07V282.32L321.3 332H299.68L301.06 289.91H298.99C297.917 299.57 295.387 307.773 291.4 314.52C287.413 321.267 282.047 326.403 275.3 329.93C268.707 333.457 260.81 335.22 251.61 335.22Z" fill="#1B1816"/>
</svg>
