<svg xmlns="http://www.w3.org/2000/svg" version="1.1" xmlns:xlink="http://www.w3.org/1999/xlink" xmlns:svgjs="http://svgjs.dev/svgjs" viewBox="0 0 2400 800" preserveAspectRatio="none"><g fill="#000" transform="matrix(1,0,0,1,8.7225341796875,328.36661529541016)"><path d="M-10,10C42.08333333333333,13.75,137.91666666666666,32.375,240,28C342.08333333333337,23.625,380,-11.416666666666666,480,-11C580,-10.583333333333334,620,31.875,720,30C820,28.125,860,-19.166666666666668,960,-20C1060,-20.833333333333332,1100,23.5,1200,26C1300,28.5,1340,-9.875,1440,-8C1540,-6.125,1580,33.541666666666664,1680,35C1780,36.458333333333336,1820,-4.958333333333333,1920,-1C2020,2.958333333333333,2060,54.833333333333336,2160,54C2260,53.166666666666664,2297.9166666666665,-77.08333333333333,2400,-5C2502.0833333333335,67.08333333333333,3254.1666666666665,211.45833333333331,2650,400C2045.8333333333335,588.5416666666667,156.25,795.8333333333334,-500,900" transform="matrix(1,0,0,1,0,35)" opacity="NaN"></path></g></svg>
