<svg id="visual" viewBox="0 0 900 600" width="900" height="600" xmlns="http://www.w3.org/2000/svg" xmlns:xlink="http://www.w3.org/1999/xlink" version="1.1"><rect x="0" y="0" width="900" height="600" fill="#242424"></rect><path d="M184 600L313 600L313 525L321 525L321 450L132 450L132 375L309 375L309 300L112 300L112 225L246 225L246 150L217 150L217 75L187 75L187 0L900 0L900 75L900 75L900 150L900 150L900 225L900 225L900 300L900 300L900 375L900 375L900 450L900 450L900 525L900 525L900 600L900 600Z" fill="#242424"></path><path d="M378 600L393 600L393 525L294 525L294 450L394 450L394 375L258 375L258 300L218 300L218 225L348 225L348 150L344 150L344 75L358 75L358 0L900 0L900 75L900 75L900 150L900 150L900 225L900 225L900 300L900 300L900 375L900 375L900 450L900 450L900 525L900 525L900 600L900 600Z" fill="#404040"></path><path d="M387 600L405 600L405 525L453 525L453 450L393 450L393 375L390 375L390 300L408 300L408 225L393 225L393 150L340 150L340 75L484 75L484 0L900 0L900 75L900 75L900 150L900 150L900 225L900 225L900 300L900 300L900 375L900 375L900 450L900 450L900 525L900 525L900 600L900 600Z" fill="#5d5d5d"></path><path d="M577 600L532 600L532 525L451 525L451 450L515 450L515 375L427 375L427 300L543 300L543 225L583 225L583 150L476 150L476 75L429 75L429 0L900 0L900 75L900 75L900 150L900 150L900 225L900 225L900 300L900 300L900 375L900 375L900 450L900 450L900 525L900 525L900 600L900 600Z" fill="#7d7d7d"></path><path d="M648 600L583 600L583 525L668 525L668 450L611 450L611 375L667 375L667 300L532 300L532 225L664 225L664 150L631 150L631 75L559 75L559 0L900 0L900 75L900 75L900 150L900 150L900 225L900 225L900 300L900 300L900 375L900 375L900 450L900 450L900 525L900 525L900 600L900 600Z" fill="#9e9e9e"></path><path d="M653 600L694 600L694 525L631 525L631 450L752 450L752 375L718 375L718 300L649 300L649 225L665 225L665 150L699 150L699 75L666 75L666 0L900 0L900 75L900 75L900 150L900 150L900 225L900 225L900 300L900 300L900 375L900 375L900 450L900 450L900 525L900 525L900 600L900 600Z" fill="#c0c0c0"></path><path d="M788 600L797 600L797 525L829 525L829 450L738 450L738 375L840 375L840 300L739 300L739 225L842 225L842 150L753 150L753 75L797 75L797 0L900 0L900 75L900 75L900 150L900 150L900 225L900 225L900 300L900 300L900 375L900 375L900 450L900 450L900 525L900 525L900 600L900 600Z" fill="#e4e4e4"></path></svg>