<svg width="402" height="402" viewBox="0 0 402 402" fill="none" xmlns="http://www.w3.org/2000/svg">
<g clip-path="url(#clip0_7_2)">
<path d="M157.433 46.9063C164.988 37.3288 178.525 34.9419 188.9 41.3579L255.726 82.6845C257.089 83.5273 258.533 84.2315 260.036 84.7866L333.744 112.003C345.187 116.228 351.64 128.365 348.744 140.215L330.091 216.541C329.71 218.097 329.487 219.688 329.423 221.289L326.316 299.8C325.834 311.989 316.285 321.877 304.12 322.784L225.766 328.629C224.168 328.749 222.586 329.028 221.043 329.462L145.415 350.768C133.674 354.076 121.319 348.05 116.697 336.761L86.9249 264.048C86.3177 262.565 85.5635 261.147 84.6736 259.814L41.04 194.471C34.2659 184.327 36.179 170.715 45.4869 162.83L105.441 112.046C106.664 111.01 107.78 109.854 108.772 108.596L157.433 46.9063Z" stroke="#1B1816" stroke-width="35" stroke-linejoin="bevel"/>
</g>
<defs>
<clipPath id="clip0_7_2">
<rect width="402" height="402" fill="white"/>
</clipPath>
</defs>
</svg>
