<svg width="402" height="402" viewBox="0 0 402 402" fill="none" xmlns="http://www.w3.org/2000/svg">
<path d="M196.61 280.22C184.037 280.22 172.997 277.077 163.49 270.79C153.983 264.503 146.547 255.533 141.18 243.88C135.967 232.073 133.36 218.197 133.36 202.25C133.36 190.597 134.817 179.863 137.73 170.05C140.643 160.237 145.013 151.803 150.84 144.75C156.82 137.543 164.257 131.947 173.15 127.96C182.043 123.973 192.393 121.98 204.2 121.98C213.553 121.98 221.833 123.283 229.04 125.89C236.4 128.497 242.533 132.177 247.44 136.93C252.5 141.683 256.18 147.357 258.48 153.95C260.933 160.543 262.083 167.98 261.93 176.26L234.33 179.94C234.33 172.427 233.027 166.293 230.42 161.54C227.967 156.633 224.363 152.953 219.61 150.5C215.01 148.047 209.49 146.82 203.05 146.82C195.69 146.82 189.02 148.813 183.04 152.8C177.06 156.787 172.383 162.767 169.01 170.74C165.637 178.713 163.95 188.833 163.95 201.1C163.95 210.3 164.947 218.35 166.94 225.25C168.933 232.15 171.77 237.9 175.45 242.5C179.283 246.947 183.73 250.32 188.79 252.62C194.003 254.767 199.753 255.84 206.04 255.84C213.093 255.84 218.997 254.537 223.75 251.93C228.657 249.17 232.413 245.337 235.02 240.43C237.78 235.523 239.313 229.62 239.62 222.72H212.94V201.1H266.07V227.32L266.3 277H244.68L246.06 234.91H243.99C242.917 244.57 240.387 252.773 236.4 259.52C232.413 266.267 227.047 271.403 220.3 274.93C213.707 278.457 205.81 280.22 196.61 280.22Z" fill="#1B1816"/>
</svg>
