<svg width="512" height="512" viewBox="0 0 512 512" fill="none" xmlns="http://www.w3.org/2000/svg">
<rect width="512" height="512" rx="256" fill="#E7E1E6"/>
<path d="M212.433 101.906C219.988 92.3288 233.525 89.9419 243.9 96.3579L310.726 137.684C312.089 138.527 313.533 139.232 315.036 139.787L388.744 167.003C400.187 171.228 406.64 183.365 403.744 195.215L385.091 271.541C384.71 273.097 384.487 274.688 384.423 276.289L381.316 354.8C380.834 366.989 371.285 376.877 359.12 377.784L280.766 383.629C279.168 383.749 277.586 384.028 276.043 384.462L200.415 405.768C188.674 409.076 176.319 403.05 171.697 391.761L141.925 319.048C141.318 317.565 140.564 316.147 139.674 314.814L96.04 249.471C89.2659 239.327 91.179 225.715 100.487 217.83L160.441 167.046C161.664 166.01 162.78 164.854 163.772 163.596L212.433 101.906Z" stroke="#0F8B8D" stroke-width="32"/>
<path d="M274.854 337.232C263.68 339.202 252.963 338.912 242.705 336.361C232.446 333.811 223.027 329.399 214.447 323.127C206.019 316.828 198.874 308.98 193.013 299.582C187.303 290.157 183.409 279.555 181.333 267.777C179.362 256.602 179.577 245.899 181.977 235.667C184.35 225.284 188.534 215.905 194.531 207.529C200.501 199.003 208.048 191.912 217.171 186.255C226.267 180.447 236.54 176.456 247.99 174.281C252.671 173.456 257.734 173.03 263.179 173.004C268.775 172.952 274.3 173.379 279.753 174.286C285.207 175.192 290.048 176.597 294.275 178.498C297.642 179.928 300.657 181.577 303.321 183.442C306.11 185.13 307.771 187.484 308.303 190.504C308.721 191.988 308.725 193.778 308.316 195.874C307.88 197.819 307.156 199.893 306.143 202.096C304.34 205.995 302.363 208.912 300.213 210.848C298.214 212.758 296.082 213.912 293.817 214.312C292.609 214.525 291.108 214.4 289.314 213.938C287.52 213.476 285.029 212.592 281.84 211.285C280.321 210.619 278.034 210.01 274.979 209.459C271.923 208.908 268.441 208.588 264.533 208.498C260.749 208.231 256.894 208.444 252.968 209.136C244.361 210.654 237.006 213.975 230.903 219.099C224.773 224.073 220.345 230.303 217.617 237.79C215.04 245.251 214.461 253.45 215.881 262.385C217.63 271.419 221.106 279.214 226.31 285.77C231.488 292.175 237.847 296.892 245.388 299.922C253.079 302.925 261.153 303.681 269.61 302.19C272.63 301.658 275.623 300.974 278.59 300.14C281.708 299.279 284.648 298.293 287.411 297.183C290.297 295.896 292.856 294.51 295.085 293.027L290.213 265.394L265.977 269.667C263.41 270.12 261.029 270.306 258.835 270.226C256.792 270.119 254.905 269.128 253.173 267.254C251.592 265.353 250.376 261.986 249.524 257.154C248.672 252.322 248.752 248.804 249.765 246.602C250.751 244.248 252.262 242.658 254.296 241.833C256.481 240.98 258.782 240.341 261.198 239.915L304.007 232.366C309.017 231.639 312.725 231.919 315.132 233.207C317.539 234.496 319.271 236.37 320.328 238.831C321.358 241.14 322.126 243.729 322.632 246.599L331.338 295.977C331.977 299.601 330.982 303.669 328.352 308.181C325.696 312.542 321.751 316.662 316.519 320.543C313.241 323.145 309.382 325.539 304.94 327.723C300.623 329.73 295.964 331.563 290.963 333.224C285.962 334.884 280.592 336.22 274.854 337.232Z" fill="#0F8B8D"/>
</svg>
